 <svg  version="1.0" xmlns="http://www.w3.org/2000/svg"  width="448.000000pt" height="448.000000pt" viewBox="0 0 448.000000 448.000000"  preserveAspectRatio="xMidYMid meet">  <g transform="translate(0.000000,448.000000) scale(0.100000,-0.100000)" fill="#936d68" stroke="none"> <path d="M1945 4444 c-803 -108 -1431 -631 -1608 -1339 -44 -176 -52 -247 -52 -490 1 -210 14 -364 41 -484 5 -22 3 -23 -26 -17 -84 16 -179 -44 -223 -141 -100 -223 -30 -470 198 -699 50 -51 117 -106 150 -125 55 -31 68 -34 144 -35 l83 -1 34 -71 c110 -240 337 -471 643 -657 133 -80 343 -183 506 -248 367 -146 456 -146 815 -1 577 235 959 534 1128 884 l47 98 67 -5 c62 -5 73 -3 135 27 77 38 212 161 278 255 53 74 98 163 119 234 23 79 21 213 -5 296 -37 120 -150 209 -240 190 -16 -4 -29 -5 -29 -3 0 2 9 62 19 133 80 540 -9 1001 -268 1388 -77 114 -233 285 -346 377 -293 239 -677 396 -1080 440 -124 14 -410 11 -530 -6z m-494 -2104 c81 -24 170 -78 233 -138 46 -45 146 -177 146 -193 0 -4 -14 -4 -31 1 -29 9 -31 8 -24 -13 3 -12 9 -77 12 -144 6 -131 -4 -159 -26 -74 -64 251 -277 425 -498 408 -199 -15 -359 -171 -371 -362 -3 -62 16 -190 44 -282 20 -69 -72 47 -130 164 -39 78 -41 79 -170 108 l-28 6 45 29 c49 31 112 108 122 150 5 18 1 29 -14 41 -12 10 -21 19 -21 22 0 2 17 12 38 21 42 20 115 118 108 145 -19 70 -19 69 26 61 32 -6 51 -4 78 10 139 69 317 85 461 40z m1916 6 c28 -8 76 -25 107 -39 47 -22 61 -24 92 -16 42 12 50 8 35 -19 -18 -34 -13 -57 29 -120 30 -45 50 -64 75 -72 41 -13 42 -16 15 -38 -20 -17 -20 -17 3 -67 22 -46 85 -113 133 -141 18 -11 17 -12 -11 -19 -128 -29 -127 -29 -169 -109 -40 -77 -119 -186 -135 -186 -5 0 -3 17 4 38 22 63 45 189 45 246 0 175 -123 326 -302 372 -240 62 -473 -95 -564 -381 l-22 -70 -1 105 c0 58 3 122 8 144 9 38 9 38 -20 34 -16 -3 -29 0 -29 4 0 18 112 158 166 207 65 60 174 116 264 136 74 17 195 13 277 -9z m-1087 -1045 c0 -6 -10 -17 -21 -25 -20 -13 -24 -13 -45 2 -34 25 -29 32 21 32 25 0 45 -4 45 -9z m170 -296 c64 -20 114 -55 141 -99 30 -49 26 -148 -8 -216 -39 -79 -143 -184 -219 -221 -58 -29 -70 -31 -137 -27 -58 4 -86 12 -136 38 -111 59 -207 189 -218 294 -15 143 44 209 218 246 68 14 295 5 359 -15z"/> </g> </svg> 