<?xml version="1.0" standalone="no"?>
<!DOCTYPE svg PUBLIC "-//W3C//DTD SVG 20010904//EN"
 "http://www.w3.org/TR/2001/REC-SVG-20010904/DTD/svg10.dtd">
<svg version="1.0" xmlns="http://www.w3.org/2000/svg"
 width="1024.000000pt" height="1024.000000pt" viewBox="0 0 1024.000000 1024.000000"
 preserveAspectRatio="xMidYMid meet">
<metadata>
Created by potrace 1.14, written by Peter Selinger 2001-2017
</metadata>
<g transform="translate(0.000000,1024.000000) scale(0.100000,-0.100000)"
fill="#000000" stroke="none">
<path d="M3485 8736 c-88 -17 -161 -45 -225 -86 -48 -31 -200 -183 -200 -200
0 -5 -33 -8 -74 -8 -219 1 -409 -138 -462 -337 -11 -41 -14 -613 -14 -3252 0
-3114 1 -3203 19 -3262 49 -159 189 -286 349 -320 35 -7 225 -11 560 -11 550
0 579 3 684 56 119 60 215 195 237 334 6 36 11 143 11 239 l0 173 48 -8 c71
-13 141 -9 200 10 75 25 160 107 198 188 26 58 29 75 32 206 3 107 7 142 17
140 7 -2 270 -266 586 -587 316 -321 599 -600 629 -621 77 -52 150 -88 223
-108 56 -15 135 -17 862 -17 798 0 800 0 870 22 151 48 264 142 330 276 48 98
65 166 65 267 0 148 -43 271 -135 390 -43 55 -328 348 -1052 1083 -266 270
-383 396 -383 410 0 15 13 29 38 44 117 68 424 346 571 518 179 209 325 440
434 686 107 242 202 563 253 861 26 150 27 165 35 803 5 358 5 774 1 925 -8
257 -10 280 -34 347 -51 145 -177 287 -310 352 -41 19 -48 28 -72 91 -50 127
-156 258 -263 324 -207 127 -490 97 -893 -95 -130 -62 -278 -149 -393 -231
-37 -26 -74 -48 -82 -48 -8 0 -75 15 -147 34 -245 64 -304 71 -603 70 -299 0
-361 -7 -603 -70 -72 -19 -138 -34 -145 -34 -6 0 -55 31 -107 68 -371 267
-811 424 -1055 378z m121 -397 c306 -66 620 -223 886 -442 l46 -39 96 36 c121
46 345 101 488 121 330 46 718 -1 1045 -126 l82 -32 108 81 c153 113 228 160
390 241 148 73 324 137 461 167 l81 17 41 -27 c79 -52 145 -185 176 -354 35
-190 27 -579 -17 -823 -21 -119 -66 -309 -74 -317 -3 -3 -38 30 -79 74 -41 43
-77 76 -80 73 -4 -4 34 -88 83 -187 97 -196 165 -386 201 -562 26 -124 39
-330 22 -330 -17 0 -40 51 -57 127 -21 91 -57 201 -62 187 -2 -7 3 -65 12
-130 59 -451 -44 -961 -273 -1349 -48 -81 -51 -75 -17 32 111 354 168 730 168
1128 1 254 -39 432 -139 630 -53 105 -100 170 -198 273 -134 141 -279 242
-507 351 -239 115 -447 181 -714 228 -129 23 -608 26 -725 5 -441 -80 -819
-226 -1081 -419 -142 -104 -289 -281 -372 -448 -56 -112 -81 -185 -106 -311
-29 -145 -34 -262 -22 -514 17 -340 56 -578 142 -860 59 -192 56 -178 36 -161
-27 22 -152 285 -191 401 -42 124 -88 308 -112 440 -24 138 -24 495 0 648 9
63 16 116 14 118 -3 3 -70 -221 -95 -318 -2 -10 -9 -18 -15 -18 -7 0 -9 41 -5
133 10 243 110 557 264 829 48 86 49 88 29 88 -8 0 -46 -35 -85 -77 -38 -43
-72 -75 -75 -73 -8 9 -66 268 -82 367 -21 135 -30 547 -15 682 15 122 42 234
75 306 35 77 106 151 149 154 4 1 51 -8 103 -20z m1980 -1330 c427 -41 880
-223 1118 -450 135 -127 212 -273 259 -489 19 -85 21 -129 22 -415 0 -353 -5
-411 -60 -633 -117 -478 -300 -827 -580 -1108 -145 -145 -255 -225 -419 -304
-206 -98 -341 -125 -589 -117 -198 6 -279 27 -472 121 -165 81 -285 166 -405
287 -258 258 -437 574 -555 979 -83 287 -111 523 -102 850 7 234 27 370 72
497 115 322 377 526 890 694 262 86 538 116 821 88z m-1043 -3549 l87 -61 -1
-522 c0 -390 -4 -531 -13 -556 -16 -44 -52 -71 -103 -78 -51 -7 -94 15 -124
64 l-23 37 -4 567 c-3 312 -1 593 3 624 l7 56 41 -35 c23 -20 81 -63 130 -96z
m1867 -500 c0 -536 -2 -625 -15 -650 -16 -32 -80 -70 -116 -70 -42 0 -88 31
-109 74 -19 41 -20 59 -20 564 l0 521 88 60 c48 33 103 74 122 90 19 17 38 30
43 31 4 0 7 -279 7 -620z"/>
<path d="M3616 8001 c-4 -5 -14 -47 -23 -93 -12 -59 -17 -135 -17 -268 -1
-159 2 -200 23 -292 13 -60 26 -108 28 -108 3 0 71 63 151 140 151 143 267
238 359 293 29 17 53 37 53 45 0 16 -160 122 -264 174 -79 40 -227 99 -278
112 -15 3 -29 2 -32 -3z"/>
<path d="M7083 7980 c-207 -72 -493 -223 -493 -260 0 -5 41 -37 91 -70 109
-74 306 -232 409 -329 41 -39 78 -67 83 -62 4 4 17 53 29 107 29 139 29 345
-1 509 -12 66 -25 123 -29 127 -4 4 -44 -6 -89 -22z"/>
<path d="M4540 5963 c-48 -7 -145 -46 -186 -74 -128 -87 -201 -263 -175 -421
55 -336 464 -480 711 -252 32 30 70 74 83 97 127 217 34 507 -197 613 -79 36
-161 49 -236 37z"/>
<path d="M6111 5960 c-215 -45 -366 -247 -348 -464 12 -142 112 -287 240 -346
175 -82 378 -44 505 94 161 175 146 451 -33 614 -91 84 -245 127 -364 102z"/>
<path d="M5108 4404 c-53 -28 -72 -98 -42 -155 27 -54 56 -59 336 -59 230 0
256 2 284 19 65 40 70 126 8 180 l-35 31 -262 0 c-212 -1 -267 -4 -289 -16z"/>
</g>
</svg>
